<svg xmlns="http://www.w3.org/2000/svg" viewBox="0 0 15 15"><defs><style>.a{fill:#f58850;}</style></defs><path class="a" d="M14.3,7.7a.789.789,0,0,0-.8.8v4a1.11,1.11,0,0,1-1.1,1.1H2.6a1.11,1.11,0,0,1-1.1-1.1V2.6A1.11,1.11,0,0,1,2.6,1.5h4A.789.789,0,0,0,7.4.7.709.709,0,0,0,6.6,0h-4A2.647,2.647,0,0,0,0,2.6v9.8A2.647,2.647,0,0,0,2.6,15h9.8A2.647,2.647,0,0,0,15,12.4v-4A.684.684,0,0,0,14.3,7.7Z"/><path class="a" d="M14.3,0H10.5a.736.736,0,0,0-.8.8.736.736,0,0,0,.8.8h2L7,7A.668.668,0,0,0,7,8a.764.764,0,0,0,.5.2c.2,0,.4,0,.5-.2l5.5-5.5V4.3a.789.789,0,0,0,.8.8.632.632,0,0,0,.7-.7V.8A.713.713,0,0,0,14.3,0Z"/></svg>